# xmcd
#
# Track frame offsets:
#	150
#	14406
#	32247
#	51001
#	71295
#	89337
#	115113
#	131746
#	149709
#	162579
#	180417
#	197617
#	216085
#	232591
#	251068
#	268273
#	295359
#	307769
#	324642
#
# Disc length: 4536 seconds
#
# Revision: 0
# Processed by: cddbd v1.5.1PL0 Copyright (c) Steve Scherf et al.
# Submitted via: dBpowerAMP V4.0
#
DISCID=1711b613
DTITLE=Various Artist - Boss Ballin Vol 4 - Next Line of Hitters
DYEAR=1900
DGENRE=
TTITLE0=D-Shot, E-40 - 707
TTITLE1=Killa Tay, Goldie, Battle Loc - Murda Show
TTITLE2=PSD, Eldorado Red, Dooni Babie - We Gangsters
TTITLE3=Messy Marv, Undaflow, T-Luni - Fuckin Wit These Ridaz
TTITLE4=Laroo, Luni Coleone, Keak Da Sneak - Keep It Movin
TTITLE5=A2thaK, Ya Boy, Diesel, J-Rock - Load Em, Cock Em, Shoot Em
TTITLE6=Rich Rap - Maybe Then You'll Know
TTITLE7=YK, Swintown, Richie-B - Off Top
TTITLE8=Tha Suspects - Get Down
TTITLE9=Turf Talk, Kaveo, Doonie Baby - Big Things
TTITLE10=Runaway, Undaflow, Goldie, The Mayor Manky, Kilo - Top Of Lolo's
TTITLE11=Eldorado Red, San Quinn - Time Of My Demise
TTITLE12=Lil Bruce, Turf Talk - Scrapers
TTITLE13=A2thaK, Akado, Undaflow, Mr Stress - Give Me Love
TTITLE14=Cobra, A2thaK, Akada, Ski Scraper -  Real Cats
TTITLE15=Federation, Eldorado Red - Money Makes Tha World Go Round
TTITLE16=Big Ted, Dream Makers, Fran - Keep Tha Change
TTITLE17=Potential - Ride Tonight
TTITLE18=Poppi Cas - Fed Game
EXTD=
EXTT0=
EXTT1=
EXTT2=
EXTT3=
EXTT4=
EXTT5=
EXTT6=
EXTT7=
EXTT8=
EXTT9=
EXTT10=
EXTT11=
EXTT12=
EXTT13=
EXTT14=
EXTT15=
EXTT16=
EXTT17=
EXTT18=
PLAYORDER=
